<?xml version="1.0" encoding="UTF-8" standalone="no"?>
<!-- Created with Inkscape (http://www.inkscape.org/) -->

<svg
   xmlns:dc="http://purl.org/dc/elements/1.1/"
   xmlns:cc="http://creativecommons.org/ns#"
   xmlns:rdf="http://www.w3.org/1999/02/22-rdf-syntax-ns#"
   xmlns:svg="http://www.w3.org/2000/svg"
   xmlns="http://www.w3.org/2000/svg"
   xmlns:sodipodi="http://sodipodi.sourceforge.net/DTD/sodipodi-0.dtd"
   xmlns:inkscape="http://www.inkscape.org/namespaces/inkscape"
   width="32"
   height="32"
   viewBox="0 0 8.4666667 8.4666667"
   version="1.1"
   id="svg4591"
   inkscape:version="0.92.4 (33fec40, 2019-01-16)"
   sodipodi:docname="tree-S32.svg">
  <defs
     id="defs4585" />
  <sodipodi:namedview
     id="base"
     pagecolor="#ffffff"
     bordercolor="#666666"
     borderopacity="1.0"
     inkscape:pageopacity="0.0"
     inkscape:pageshadow="2"
     inkscape:zoom="11.2"
     inkscape:cx="4.5574501"
     inkscape:cy="23.267397"
     inkscape:document-units="mm"
     inkscape:current-layer="layer1"
     showgrid="false"
     units="px"
     inkscape:window-width="1920"
     inkscape:window-height="1026"
     inkscape:window-x="0"
     inkscape:window-y="0"
     inkscape:window-maximized="1" />
  <metadata
     id="metadata4588">
    <rdf:RDF>
      <cc:Work
         rdf:about="">
        <dc:format>image/svg+xml</dc:format>
        <dc:type
           rdf:resource="http://purl.org/dc/dcmitype/StillImage" />
        <dc:title></dc:title>
      </cc:Work>
    </rdf:RDF>
  </metadata>
  <g
     inkscape:label="Layer 1"
     inkscape:groupmode="layer"
     id="layer1"
     transform="translate(0,-288.53332)">
    <g
       id="g861"
       transform="matrix(0.75034295,0,0,0.75034295,-0.35548019,74.159391)">
      <g
         transform="matrix(0.94148015,0,0,0.94148015,0.04065271,19.602259)"
         id="g838">
        <path
           style="fill:none;stroke:#000000;stroke-width:0.1527307;stroke-miterlimit:4;stroke-dasharray:none;stroke-opacity:1"
           id="path821"
           sodipodi:type="arc"
           sodipodi:cx="-6.427916"
           sodipodi:cy="-292.19077"
           sodipodi:rx="2.0336201"
           sodipodi:ry="2.0336201"
           sodipodi:start="1.5306298"
           sodipodi:end="4.7104588"
           sodipodi:open="true"
           d="m -6.3462546,-290.15879 a 2.0336201,2.0336201 0 0 1 -1.8142875,-0.96726 2.0336201,2.0336201 0 0 1 -0.043273,-2.05557 2.0336201,2.0336201 0 0 1 1.7719736,-1.04276"
           transform="scale(-1)" />
        <path
           d="m 6.3462546,290.15878 a 2.0336201,2.0336201 0 0 1 -1.8142875,-0.96726 2.0336201,2.0336201 0 0 1 -0.043273,-2.05557 2.0336201,2.0336201 0 0 1 1.7719736,-1.04277"
           sodipodi:open="true"
           sodipodi:end="4.7104588"
           sodipodi:start="1.5306298"
           sodipodi:ry="2.0336201"
           sodipodi:rx="2.0336201"
           sodipodi:cy="288.1268"
           sodipodi:cx="6.2645931"
           sodipodi:type="arc"
           id="path834"
           style="fill:none;stroke:#000000;stroke-width:0.1527307;stroke-miterlimit:4;stroke-dasharray:none;stroke-opacity:1" />
      </g>
      <g
         id="g844"
         transform="matrix(0.30258588,-0.36060781,0.36060782,0.30258589,-102.11085,202.24453)">
        <path
           transform="scale(-1)"
           d="m -6.3462546,-290.15879 a 2.0336201,2.0336201 0 0 1 -1.8142875,-0.96726 2.0336201,2.0336201 0 0 1 -0.043273,-2.05557 2.0336201,2.0336201 0 0 1 1.7719736,-1.04276"
           sodipodi:open="true"
           sodipodi:end="4.7104588"
           sodipodi:start="1.5306298"
           sodipodi:ry="2.0336201"
           sodipodi:rx="2.0336201"
           sodipodi:cy="-292.19077"
           sodipodi:cx="-6.427916"
           sodipodi:type="arc"
           id="path840"
           style="fill:none;stroke:#000000;stroke-width:0.1527307;stroke-miterlimit:4;stroke-dasharray:none;stroke-opacity:1" />
        <path
           style="fill:none;stroke:#000000;stroke-width:0.1527307;stroke-miterlimit:4;stroke-dasharray:none;stroke-opacity:1"
           id="path842"
           sodipodi:type="arc"
           sodipodi:cx="6.2645931"
           sodipodi:cy="288.1268"
           sodipodi:rx="2.0336201"
           sodipodi:ry="2.0336201"
           sodipodi:start="1.5306298"
           sodipodi:end="4.7104588"
           sodipodi:open="true"
           d="m 6.3462546,290.15878 a 2.0336201,2.0336201 0 0 1 -1.8142875,-0.96726 2.0336201,2.0336201 0 0 1 -0.043273,-2.05557 2.0336201,2.0336201 0 0 1 1.7719736,-1.04277" />
      </g>
      <g
         transform="matrix(0.30258588,0.36060781,-0.36060782,0.30258589,110.08838,197.60579)"
         id="g850">
        <path
           style="fill:none;stroke:#000000;stroke-width:0.1527307;stroke-miterlimit:4;stroke-dasharray:none;stroke-opacity:1"
           id="path846"
           sodipodi:type="arc"
           sodipodi:cx="-6.427916"
           sodipodi:cy="-292.19077"
           sodipodi:rx="2.0336201"
           sodipodi:ry="2.0336201"
           sodipodi:start="1.5306298"
           sodipodi:end="4.7104588"
           sodipodi:open="true"
           d="m -6.3462546,-290.15879 a 2.0336201,2.0336201 0 0 1 -1.8142875,-0.96726 2.0336201,2.0336201 0 0 1 -0.043273,-2.05557 2.0336201,2.0336201 0 0 1 1.7719736,-1.04276"
           transform="scale(-1)" />
        <path
           d="m 6.3462546,290.15878 a 2.0336201,2.0336201 0 0 1 -1.8142875,-0.96726 2.0336201,2.0336201 0 0 1 -0.043273,-2.05557 2.0336201,2.0336201 0 0 1 1.7719736,-1.04277"
           sodipodi:open="true"
           sodipodi:end="4.7104588"
           sodipodi:start="1.5306298"
           sodipodi:ry="2.0336201"
           sodipodi:rx="2.0336201"
           sodipodi:cy="288.1268"
           sodipodi:cx="6.2645931"
           sodipodi:type="arc"
           id="path848"
           style="fill:none;stroke:#000000;stroke-width:0.1527307;stroke-miterlimit:4;stroke-dasharray:none;stroke-opacity:1" />
      </g>
    </g>
  </g>
</svg>
